ffmpeg started on 2026-04-09 at 15:13:59
Report written to "D:\Convert\FFMetrics\reports\psnr_report-6.txt"
Log level: 32
Command line:
ffmpeg -hide_banner -nostdin -r 24000/1001 -i "F:\\Convert\\files\\[DC] Make Heroine ga Oosugiru - 07_Telegram_HEVC(317).mkv" -r 24000/1001 -i "F:\\Convert\\files\\[DC] Make Heroine ga Oosugiru - 07_Telegram.mp4" -lavfi "[0:v]settb=AVTB,setpts=PTS-STARTPTS,format=pix_fmts=yuv420p10le,fps=24000/1001,scale=1920:1080:flags=lanczos:param0=3:out_range=limited:out_color_matrix=bt709:out_chroma_loc=left,setsar=1/1,setdar=(1920/1080)*(1/1),colorspace=format=yuv420p10:range=tv:primaries=bt709:trc=bt709:space=bt709:fast=0[main];[1:v]settb=AVTB,setpts=PTS-STARTPTS,format=pix_fmts=yuv420p,fps=24000/1001,scale=1920:1080:flags=lanczos:param0=3:out_range=limited:out_color_matrix=bt709:out_chroma_loc=left,setsar=1/1,setdar=(1920/1080)*(1/1),colorspace=format=yuv420p:range=tv:primaries=bt709:trc=bt709:space=bt709:fast=0[ref];[main][ref]psnr=eof_action=endall:stats_file='D\\:/Convert/FFMetrics/logs/psnr_logfile-6.txt'" -f null -
Input #0, matroska,webm, from 'F:\Convert\files\[DC] Make Heroine ga Oosugiru - 07_Telegram_HEVC(317).mkv':
  Metadata:
    COMPATIBLE_BRANDS: isomiso2avc1mp41
    MAJOR_BRAND     : isom
    MINOR_VERSION   : 512
    ENCODER         : Lavf61.7.100
  Duration: 00:24:06.79, start: -0.021000, bitrate: 973 kb/s
  Stream #0:0: Video: hevc (Main 10), yuv420p10le(tv, bt709, progressive), 1920x1080 [SAR 1:1 DAR 16:9], 23.98 fps, 23.98 tbr, 1k tbn (default)
      Metadata:
        HANDLER_NAME    : VideoHandler
        VENDOR_ID       : [0][0][0][0]
        ENCODER         : Lavc61.19.100 libx265
        BPS             : 776812
        DURATION        : 00:24:06.569708333
        NUMBER_OF_FRAMES: 34683
        NUMBER_OF_BYTES : 140464195
        _STATISTICS_WRITING_APP: mkvpropedit v94.0 ('Initiate') 64-bit
        _STATISTICS_WRITING_DATE_UTC: 2026-04-09 09:47:59
        _STATISTICS_TAGS: BPS DURATION NUMBER_OF_FRAMES NUMBER_OF_BYTES
  Stream #0:1: Audio: aac (LC), 48000 Hz, stereo, fltp (default)
      Metadata:
        HANDLER_NAME    : SoundHandler
        VENDOR_ID       : [0][0][0][0]
        ENCODER         : Lavc61.19.100 aac
        BPS             : 193194
        DURATION        : 00:24:06.784000000
        NUMBER_OF_FRAMES: 67819
        NUMBER_OF_BYTES : 34938755
        _STATISTICS_WRITING_APP: mkvpropedit v94.0 ('Initiate') 64-bit
        _STATISTICS_WRITING_DATE_UTC: 2026-04-09 09:47:59
        _STATISTICS_TAGS: BPS DURATION NUMBER_OF_FRAMES NUMBER_OF_BYTES
Input #1, mov,mp4,m4a,3gp,3g2,mj2, from 'F:\Convert\files\[DC] Make Heroine ga Oosugiru - 07_Telegram.mp4':
  Metadata:
    major_brand     : isom
    minor_version   : 512
    compatible_brands: isomiso2avc1mp41
    encoder         : Lavf60.16.100
  Duration: 00:24:06.74, start: 0.000000, bitrate: 3764 kb/s
  Stream #1:0[0x1](und): Video: h264 (High) (avc1 / 0x31637661), yuv420p(tv, bt709, progressive), 1920x1080 [SAR 1:1 DAR 16:9], 3616 kb/s, 23.98 fps, 23.98 tbr, 24k tbn (default)
      Metadata:
        handler_name    : VideoHandler
        vendor_id       : [0][0][0][0]
        encoder         : Lavc60.31.102 h264_qsv
  Stream #1:1[0x2](und): Audio: aac (HE-AACv2) (mp4a / 0x6134706D), 48000 Hz, stereo, fltp, 144 kb/s (default)
      Metadata:
        handler_name    : SoundHandler
        vendor_id       : [0][0][0][0]
Stream mapping:
  Stream #0:0 (hevc) -> settb:default
  Stream #1:0 (h264) -> settb:default
  psnr:default -> Stream #0:0 (wrapped_avframe)
  Stream #0:1 -> #0:1 (aac (native) -> pcm_s16le (native))
Output #0, null, to 'pipe:':
  Metadata:
    COMPATIBLE_BRANDS: isomiso2avc1mp41
    MAJOR_BRAND     : isom
    MINOR_VERSION   : 512
    encoder         : Lavf61.7.100
  Stream #0:0: Video: wrapped_avframe, yuv420p10le(tv, bt709, progressive), 1920x1080 [SAR 1:1 DAR 16:9], q=2-31, 200 kb/s, 23.98 fps, 23.98 tbn
      Metadata:
        encoder         : Lavc61.19.100 wrapped_avframe
  Stream #0:1: Audio: pcm_s16le, 48000 Hz, stereo, s16, 1536 kb/s (default)
      Metadata:
        HANDLER_NAME    : SoundHandler
        VENDOR_ID       : [0][0][0][0]
        _STATISTICS_TAGS: BPS DURATION NUMBER_OF_FRAMES NUMBER_OF_BYTES
        BPS             : 193194
        DURATION        : 00:24:06.784000000
        NUMBER_OF_FRAMES: 67819
        NUMBER_OF_BYTES : 34938755
        _STATISTICS_WRITING_APP: mkvpropedit v94.0 ('Initiate') 64-bit
        _STATISTICS_WRITING_DATE_UTC: 2026-04-09 09:47:59
        encoder         : Lavc61.19.100 pcm_s16le
frame=  105 fps=0.0 q=-0.0 size=N/A time=00:00:04.37 bitrate=N/A speed=8.64x    frame=  259 fps=255 q=-0.0 size=N/A time=00:00:10.80 bitrate=N/A speed=10.6x    frame=  422 fps=273 q=-0.0 size=N/A time=00:00:17.60 bitrate=N/A speed=11.4x    frame=  583 fps=283 q=-0.0 size=N/A time=00:00:24.31 bitrate=N/A speed=11.8x    frame=  740 fps=288 q=-0.0 size=N/A time=00:00:30.86 bitrate=N/A speed=  12x    frame=  889 fps=289 q=-0.0 size=N/A time=00:00:37.07 bitrate=N/A speed=  12x    frame= 1008 fps=279 q=-0.0 size=N/A time=00:00:42.04 bitrate=N/A speed=11.7x    frame= 1146 fps=278 q=-0.0 size=N/A time=00:00:47.79 bitrate=N/A speed=11.6x    frame= 1278 fps=276 q=-0.0 size=N/A time=00:00:53.30 bitrate=N/A speed=11.5x    frame= 1422 fps=276 q=-0.0 size=N/A time=00:00:59.30 bitrate=N/A speed=11.5x    frame= 1546 fps=273 q=-0.0 size=N/A time=00:01:04.48 bitrate=N/A speed=11.4x    frame= 1674 fps=271 q=-0.0 size=N/A time=00:01:09.81 bitrate=N/A speed=11.3x    frame= 1811 fps=271 q=-0.0 size=N/A time=00:01:15.53 bitrate=N/A speed=11.3x    frame= 1952 fps=270 q=-0.0 size=N/A time=00:01:21.41 bitrate=N/A speed=11.3x    frame= 2066 fps=267 q=-0.0 size=N/A time=00:01:26.16 bitrate=N/A speed=11.2x    frame= 2182 fps=265 q=-0.0 size=N/A time=00:01:31.00 bitrate=N/A speed=  11x    frame= 2319 fps=265 q=-0.0 size=N/A time=00:01:36.72 bitrate=N/A speed=11.1x    frame= 2448 fps=264 q=-0.0 size=N/A time=00:01:42.10 bitrate=N/A speed=  11x    frame= 2563 fps=262 q=-0.0 size=N/A time=00:01:46.89 bitrate=N/A speed=10.9x    frame= 2706 fps=263 q=-0.0 size=N/A time=00:01:52.86 bitrate=N/A speed=  11x    frame= 2845 fps=263 q=-0.0 size=N/A time=00:01:58.66 bitrate=N/A speed=  11x    frame= 2987 fps=264 q=-0.0 size=N/A time=00:02:04.58 bitrate=N/A speed=  11x    frame= 3146 fps=265 q=-0.0 size=N/A time=00:02:11.21 bitrate=N/A speed=11.1x    frame= 3303 fps=267 q=-0.0 size=N/A time=00:02:17.76 bitrate=N/A speed=11.1x    frame= 3473 fps=270 q=-0.0 size=N/A time=00:02:24.85 bitrate=N/A speed=11.2x    frame= 3619 fps=270 q=-0.0 size=N/A time=00:02:30.94 bitrate=N/A speed=11.3x    frame= 3778 fps=271 q=-0.0 size=N/A time=00:02:37.57 bitrate=N/A speed=11.3x    frame= 3951 fps=273 q=-0.0 size=N/A time=00:02:44.78 bitrate=N/A speed=11.4x    frame= 4119 fps=275 q=-0.0 size=N/A time=00:02:51.79 bitrate=N/A speed=11.5x    frame= 4287 fps=277 q=-0.0 size=N/A time=00:02:58.80 bitrate=N/A speed=11.6x    frame= 4460 fps=279 q=-0.0 size=N/A time=00:03:06.01 bitrate=N/A speed=11.6x    frame= 4622 fps=280 q=-0.0 size=N/A time=00:03:12.77 bitrate=N/A speed=11.7x    frame= 4780 fps=281 q=-0.0 size=N/A time=00:03:19.36 bitrate=N/A speed=11.7x    frame= 4948 fps=282 q=-0.0 size=N/A time=00:03:26.37 bitrate=N/A speed=11.8x    frame= 5106 fps=283 q=-0.0 size=N/A time=00:03:32.96 bitrate=N/A speed=11.8x    frame= 5270 fps=284 q=-0.0 size=N/A time=00:03:39.80 bitrate=N/A speed=11.8x    frame= 5429 fps=284 q=-0.0 size=N/A time=00:03:46.43 bitrate=N/A speed=11.9x    frame= 5570 fps=284 q=-0.0 size=N/A time=00:03:52.31 bitrate=N/A speed=11.9x    frame= 5721 fps=284 q=-0.0 size=N/A time=00:03:58.61 bitrate=N/A speed=11.9x    frame= 5881 fps=285 q=-0.0 size=N/A time=00:04:05.28 bitrate=N/A speed=11.9x    frame= 6038 fps=285 q=-0.0 size=N/A time=00:04:11.83 bitrate=N/A speed=11.9x    frame= 6199 fps=286 q=-0.0 size=N/A time=00:04:18.54 bitrate=N/A speed=11.9x    frame= 6356 fps=286 q=-0.0 size=N/A time=00:04:25.09 bitrate=N/A speed=11.9x    frame= 6524 fps=287 q=-0.0 size=N/A time=00:04:32.10 bitrate=N/A speed=  12x    frame= 6700 fps=289 q=-0.0 size=N/A time=00:04:39.44 bitrate=N/A speed=  12x    frame= 6870 fps=290 q=-0.0 size=N/A time=00:04:46.53 bitrate=N/A speed=12.1x    frame= 7046 fps=291 q=-0.0 size=N/A time=00:04:53.87 bitrate=N/A speed=12.1x    frame= 7208 fps=291 q=-0.0 size=N/A time=00:05:00.63 bitrate=N/A speed=12.1x    frame= 7373 fps=292 q=-0.0 size=N/A time=00:05:07.51 bitrate=N/A speed=12.2x    frame= 7527 fps=292 q=-0.0 size=N/A time=00:05:13.93 bitrate=N/A speed=12.2x    frame= 7673 fps=292 q=-0.0 size=N/A time=00:05:20.02 bitrate=N/A speed=12.2x    frame= 7833 fps=292 q=-0.0 size=N/A time=00:05:26.70 bitrate=N/A speed=12.2x    frame= 7996 fps=292 q=-0.0 size=N/A time=00:05:33.49 bitrate=N/A speed=12.2x    frame= 8152 fps=293 q=-0.0 size=N/A time=00:05:40.00 bitrate=N/A speed=12.2x    frame= 8315 fps=293 q=-0.0 size=N/A time=00:05:46.80 bitrate=N/A speed=12.2x    frame= 8494 fps=294 q=-0.0 size=N/A time=00:05:54.27 bitrate=N/A speed=12.3x    frame= 8661 fps=295 q=-0.0 size=N/A time=00:06:01.23 bitrate=N/A speed=12.3x    frame= 8825 fps=295 q=-0.0 size=N/A time=00:06:08.07 bitrate=N/A speed=12.3x    frame= 8993 fps=296 q=-0.0 size=N/A time=00:06:15.08 bitrate=N/A speed=12.3x    frame= 9155 fps=296 q=-0.0 size=N/A time=00:06:21.83 bitrate=N/A speed=12.3x    frame= 9328 fps=296 q=-0.0 size=N/A time=00:06:29.05 bitrate=N/A speed=12.4x    frame= 9481 fps=296 q=-0.0 size=N/A time=00:06:35.43 bitrate=N/A speed=12.4x    frame= 9650 fps=297 q=-0.0 size=N/A time=00:06:42.48 bitrate=N/A speed=12.4x    frame= 9812 fps=297 q=-0.0 size=N/A time=00:06:49.24 bitrate=N/A speed=12.4x    frame= 9978 fps=298 q=-0.0 size=N/A time=00:06:56.16 bitrate=N/A speed=12.4x    frame=10136 fps=298 q=-0.0 size=N/A time=00:07:02.75 bitrate=N/A speed=12.4x    frame=10299 fps=298 q=-0.0 size=N/A time=00:07:09.55 bitrate=N/A speed=12.4x    frame=10461 fps=298 q=-0.0 size=N/A time=00:07:16.31 bitrate=N/A speed=12.4x    frame=10622 fps=298 q=-0.0 size=N/A time=00:07:23.02 bitrate=N/A speed=12.4x    frame=10779 fps=299 q=-0.0 size=N/A time=00:07:29.57 bitrate=N/A speed=12.5x    frame=10942 fps=299 q=-0.0 size=N/A time=00:07:36.37 bitrate=N/A speed=12.5x    frame=11116 fps=299 q=-0.0 size=N/A time=00:07:43.62 bitrate=N/A speed=12.5x    frame=11261 fps=299 q=-0.0 size=N/A time=00:07:49.67 bitrate=N/A speed=12.5x    frame=11425 fps=299 q=-0.0 size=N/A time=00:07:56.51 bitrate=N/A speed=12.5x    frame=11583 fps=299 q=-0.0 size=N/A time=00:08:03.10 bitrate=N/A speed=12.5x    frame=11748 fps=300 q=-0.0 size=N/A time=00:08:09.98 bitrate=N/A speed=12.5x    frame=11918 fps=300 q=-0.0 size=N/A time=00:08:17.07 bitrate=N/A speed=12.5x    frame=12082 fps=300 q=-0.0 size=N/A time=00:08:23.92 bitrate=N/A speed=12.5x    frame=12234 fps=300 q=-0.0 size=N/A time=00:08:30.25 bitrate=N/A speed=12.5x    frame=12404 fps=301 q=-0.0 size=N/A time=00:08:37.35 bitrate=N/A speed=12.5x    frame=12559 fps=301 q=-0.0 size=N/A time=00:08:43.81 bitrate=N/A speed=12.5x    frame=12724 fps=301 q=-0.0 size=N/A time=00:08:50.69 bitrate=N/A speed=12.6x    frame=12901 fps=301 q=-0.0 size=N/A time=00:08:58.07 bitrate=N/A speed=12.6x    frame=13063 fps=302 q=-0.0 size=N/A time=00:09:04.83 bitrate=N/A speed=12.6x    frame=13227 fps=302 q=-0.0 size=N/A time=00:09:11.67 bitrate=N/A speed=12.6x    frame=13383 fps=302 q=-0.0 size=N/A time=00:09:18.18 bitrate=N/A speed=12.6x    frame=13533 fps=302 q=-0.0 size=N/A time=00:09:24.43 bitrate=N/A speed=12.6x    frame=13703 fps=302 q=-0.0 size=N/A time=00:09:31.52 bitrate=N/A speed=12.6x    frame=13859 fps=302 q=-0.0 size=N/A time=00:09:38.03 bitrate=N/A speed=12.6x    frame=14020 fps=302 q=-0.0 size=N/A time=00:09:44.75 bitrate=N/A speed=12.6x    frame=14181 fps=302 q=-0.0 size=N/A time=00:09:51.46 bitrate=N/A speed=12.6x    frame=14342 fps=302 q=-0.0 size=N/A time=00:09:58.18 bitrate=N/A speed=12.6x    frame=14504 fps=302 q=-0.0 size=N/A time=00:10:04.93 bitrate=N/A speed=12.6x    frame=14665 fps=302 q=-0.0 size=N/A time=00:10:11.65 bitrate=N/A speed=12.6x    frame=14821 fps=303 q=-0.0 size=N/A time=00:10:18.15 bitrate=N/A speed=12.6x    frame=14988 fps=303 q=-0.0 size=N/A time=00:10:25.12 bitrate=N/A speed=12.6x    frame=15129 fps=302 q=-0.0 size=N/A time=00:10:31.00 bitrate=N/A speed=12.6x    frame=15281 fps=302 q=-0.0 size=N/A time=00:10:37.34 bitrate=N/A speed=12.6x    frame=15440 fps=302 q=-0.0 size=N/A time=00:10:43.97 bitrate=N/A speed=12.6x    frame=15592 fps=302 q=-0.0 size=N/A time=00:10:50.31 bitrate=N/A speed=12.6x    frame=15759 fps=303 q=-0.0 size=N/A time=00:10:57.28 bitrate=N/A speed=12.6x    frame=15922 fps=303 q=-0.0 size=N/A time=00:11:04.08 bitrate=N/A speed=12.6x    frame=16080 fps=303 q=-0.0 size=N/A time=00:11:10.67 bitrate=N/A speed=12.6x    frame=16244 fps=303 q=-0.0 size=N/A time=00:11:17.51 bitrate=N/A speed=12.6x    frame=16411 fps=303 q=-0.0 size=N/A time=00:11:24.47 bitrate=N/A speed=12.6x    frame=16560 fps=303 q=-0.0 size=N/A time=00:11:30.69 bitrate=N/A speed=12.6x    frame=16717 fps=303 q=-0.0 size=N/A time=00:11:37.23 bitrate=N/A speed=12.6x    frame=16882 fps=303 q=-0.0 size=N/A time=00:11:44.12 bitrate=N/A speed=12.6x    frame=17053 fps=303 q=-0.0 size=N/A time=00:11:51.25 bitrate=N/A speed=12.7x    frame=17223 fps=304 q=-0.0 size=N/A time=00:11:58.34 bitrate=N/A speed=12.7x    frame=17381 fps=304 q=-0.0 size=N/A time=00:12:04.93 bitrate=N/A speed=12.7x    frame=17538 fps=304 q=-0.0 size=N/A time=00:12:11.48 bitrate=N/A speed=12.7x    frame=17693 fps=304 q=-0.0 size=N/A time=00:12:17.94 bitrate=N/A speed=12.7x    frame=17850 fps=304 q=-0.0 size=N/A time=00:12:24.49 bitrate=N/A speed=12.7x    frame=17999 fps=304 q=-0.0 size=N/A time=00:12:30.70 bitrate=N/A speed=12.7x    frame=18169 fps=304 q=-0.0 size=N/A time=00:12:37.79 bitrate=N/A speed=12.7x    frame=18325 fps=304 q=-0.0 size=N/A time=00:12:44.30 bitrate=N/A speed=12.7x    frame=18478 fps=304 q=-0.0 size=N/A time=00:12:50.68 bitrate=N/A speed=12.7x    frame=18642 fps=304 q=-0.0 size=N/A time=00:12:57.52 bitrate=N/A speed=12.7x    frame=18810 fps=304 q=-0.0 size=N/A time=00:13:04.53 bitrate=N/A speed=12.7x    frame=18970 fps=304 q=-0.0 size=N/A time=00:13:11.20 bitrate=N/A speed=12.7x    frame=19131 fps=304 q=-0.0 size=N/A time=00:13:17.92 bitrate=N/A speed=12.7x    frame=19295 fps=304 q=-0.0 size=N/A time=00:13:24.76 bitrate=N/A speed=12.7x    frame=19453 fps=304 q=-0.0 size=N/A time=00:13:31.35 bitrate=N/A speed=12.7x    frame=19616 fps=304 q=-0.0 size=N/A time=00:13:38.15 bitrate=N/A speed=12.7x    frame=19779 fps=304 q=-0.0 size=N/A time=00:13:44.94 bitrate=N/A speed=12.7x    frame=19952 fps=305 q=-0.0 size=N/A time=00:13:52.16 bitrate=N/A speed=12.7x    frame=20126 fps=305 q=-0.0 size=N/A time=00:13:59.42 bitrate=N/A speed=12.7x    frame=20288 fps=305 q=-0.0 size=N/A time=00:14:06.17 bitrate=N/A speed=12.7x    frame=20445 fps=305 q=-0.0 size=N/A time=00:14:12.72 bitrate=N/A speed=12.7x    frame=20598 fps=305 q=-0.0 size=N/A time=00:14:19.10 bitrate=N/A speed=12.7x    frame=20751 fps=305 q=-0.0 size=N/A time=00:14:25.48 bitrate=N/A speed=12.7x    frame=20924 fps=305 q=-0.0 size=N/A time=00:14:32.70 bitrate=N/A speed=12.7x    frame=21093 fps=305 q=-0.0 size=N/A time=00:14:39.75 bitrate=N/A speed=12.7x    frame=21254 fps=305 q=-0.0 size=N/A time=00:14:46.46 bitrate=N/A speed=12.7x    frame=21418 fps=305 q=-0.0 size=N/A time=00:14:53.30 bitrate=N/A speed=12.7x    frame=21587 fps=306 q=-0.0 size=N/A time=00:15:00.35 bitrate=N/A speed=12.7x    frame=21749 fps=306 q=-0.0 size=N/A time=00:15:07.11 bitrate=N/A speed=12.7x    frame=21908 fps=306 q=-0.0 size=N/A time=00:15:13.74 bitrate=N/A speed=12.7x    frame=22065 fps=306 q=-0.0 size=N/A time=00:15:20.29 bitrate=N/A speed=12.7x    frame=22229 fps=306 q=-0.0 size=N/A time=00:15:27.13 bitrate=N/A speed=12.7x    frame=22400 fps=306 q=-0.0 size=N/A time=00:15:34.26 bitrate=N/A speed=12.8x    frame=22569 fps=306 q=-0.0 size=N/A time=00:15:41.31 bitrate=N/A speed=12.8x    frame=22734 fps=306 q=-0.0 size=N/A time=00:15:48.19 bitrate=N/A speed=12.8x    frame=22895 fps=306 q=-0.0 size=N/A time=00:15:54.91 bitrate=N/A speed=12.8x    frame=23071 fps=306 q=-0.0 size=N/A time=00:16:02.25 bitrate=N/A speed=12.8x    frame=23220 fps=306 q=-0.0 size=N/A time=00:16:08.46 bitrate=N/A speed=12.8x    frame=23368 fps=306 q=-0.0 size=N/A time=00:16:14.64 bitrate=N/A speed=12.8x    frame=23536 fps=306 q=-0.0 size=N/A time=00:16:21.64 bitrate=N/A speed=12.8x    frame=23704 fps=306 q=-0.0 size=N/A time=00:16:28.65 bitrate=N/A speed=12.8x    frame=23872 fps=307 q=-0.0 size=N/A time=00:16:35.66 bitrate=N/A speed=12.8x    frame=24032 fps=307 q=-0.0 size=N/A time=00:16:42.33 bitrate=N/A speed=12.8x    frame=24207 fps=307 q=-0.0 size=N/A time=00:16:49.63 bitrate=N/A speed=12.8x    frame=24376 fps=307 q=-0.0 size=N/A time=00:16:56.68 bitrate=N/A speed=12.8x    frame=24541 fps=307 q=-0.0 size=N/A time=00:17:03.56 bitrate=N/A speed=12.8x    frame=24713 fps=307 q=-0.0 size=N/A time=00:17:10.73 bitrate=N/A speed=12.8x    frame=24880 fps=307 q=-0.0 size=N/A time=00:17:17.70 bitrate=N/A speed=12.8x    frame=25049 fps=307 q=-0.0 size=N/A time=00:17:24.75 bitrate=N/A speed=12.8x    frame=25215 fps=307 q=-0.0 size=N/A time=00:17:31.67 bitrate=N/A speed=12.8x    frame=25382 fps=308 q=-0.0 size=N/A time=00:17:38.64 bitrate=N/A speed=12.8x    frame=25551 fps=308 q=-0.0 size=N/A time=00:17:45.68 bitrate=N/A speed=12.8x    frame=25730 fps=308 q=-0.0 size=N/A time=00:17:53.15 bitrate=N/A speed=12.8x    frame=25900 fps=308 q=-0.0 size=N/A time=00:18:00.24 bitrate=N/A speed=12.8x    frame=26074 fps=308 q=-0.0 size=N/A time=00:18:07.50 bitrate=N/A speed=12.9x    frame=26239 fps=308 q=-0.0 size=N/A time=00:18:14.38 bitrate=N/A speed=12.9x    frame=26406 fps=308 q=-0.0 size=N/A time=00:18:21.35 bitrate=N/A speed=12.9x    frame=26566 fps=308 q=-0.0 size=N/A time=00:18:28.02 bitrate=N/A speed=12.9x    frame=26724 fps=308 q=-0.0 size=N/A time=00:18:34.61 bitrate=N/A speed=12.9x    frame=26886 fps=308 q=-0.0 size=N/A time=00:18:41.37 bitrate=N/A speed=12.9x    frame=27030 fps=308 q=-0.0 size=N/A time=00:18:47.37 bitrate=N/A speed=12.9x    frame=27195 fps=308 q=-0.0 size=N/A time=00:18:54.25 bitrate=N/A speed=12.9x    frame=27355 fps=308 q=-0.0 size=N/A time=00:19:00.93 bitrate=N/A speed=12.9x    frame=27517 fps=308 q=-0.0 size=N/A time=00:19:07.68 bitrate=N/A speed=12.9x    frame=27675 fps=308 q=-0.0 size=N/A time=00:19:14.27 bitrate=N/A speed=12.9x    frame=27840 fps=308 q=-0.0 size=N/A time=00:19:21.16 bitrate=N/A speed=12.9x    frame=27994 fps=308 q=-0.0 size=N/A time=00:19:27.58 bitrate=N/A speed=12.9x    frame=28154 fps=308 q=-0.0 size=N/A time=00:19:34.25 bitrate=N/A speed=12.9x    frame=28296 fps=308 q=-0.0 size=N/A time=00:19:40.17 bitrate=N/A speed=12.9x    frame=28455 fps=308 q=-0.0 size=N/A time=00:19:46.81 bitrate=N/A speed=12.9x    frame=28616 fps=308 q=-0.0 size=N/A time=00:19:53.52 bitrate=N/A speed=12.9x    frame=28778 fps=308 q=-0.0 size=N/A time=00:20:00.28 bitrate=N/A speed=12.9x    frame=28922 fps=308 q=-0.0 size=N/A time=00:20:06.28 bitrate=N/A speed=12.8x    frame=29074 fps=308 q=-0.0 size=N/A time=00:20:12.62 bitrate=N/A speed=12.8x    frame=29230 fps=308 q=-0.0 size=N/A time=00:20:19.13 bitrate=N/A speed=12.8x    frame=29384 fps=308 q=-0.0 size=N/A time=00:20:25.55 bitrate=N/A speed=12.8x    frame=29523 fps=308 q=-0.0 size=N/A time=00:20:31.35 bitrate=N/A speed=12.8x    frame=29687 fps=308 q=-0.0 size=N/A time=00:20:38.19 bitrate=N/A speed=12.8x    frame=29844 fps=308 q=-0.0 size=N/A time=00:20:44.74 bitrate=N/A speed=12.8x    frame=29987 fps=308 q=-0.0 size=N/A time=00:20:50.70 bitrate=N/A speed=12.8x    frame=30136 fps=308 q=-0.0 size=N/A time=00:20:56.92 bitrate=N/A speed=12.8x    frame=30295 fps=307 q=-0.0 size=N/A time=00:21:03.55 bitrate=N/A speed=12.8x    frame=30464 fps=308 q=-0.0 size=N/A time=00:21:10.60 bitrate=N/A speed=12.8x    frame=30625 fps=308 q=-0.0 size=N/A time=00:21:17.31 bitrate=N/A speed=12.8x    frame=30793 fps=308 q=-0.0 size=N/A time=00:21:24.32 bitrate=N/A speed=12.8x    frame=30959 fps=308 q=-0.0 size=N/A time=00:21:31.24 bitrate=N/A speed=12.8x    frame=31113 fps=308 q=-0.0 size=N/A time=00:21:37.67 bitrate=N/A speed=12.8x    frame=31270 fps=308 q=-0.0 size=N/A time=00:21:44.21 bitrate=N/A speed=12.8x    frame=31438 fps=308 q=-0.0 size=N/A time=00:21:51.22 bitrate=N/A speed=12.8x    frame=31604 fps=308 q=-0.0 size=N/A time=00:21:58.15 bitrate=N/A speed=12.8x    frame=31766 fps=308 q=-0.0 size=N/A time=00:22:04.90 bitrate=N/A speed=12.8x    frame=31925 fps=308 q=-0.0 size=N/A time=00:22:11.53 bitrate=N/A speed=12.8x    frame=32087 fps=308 q=-0.0 size=N/A time=00:22:18.29 bitrate=N/A speed=12.8x    frame=32251 fps=308 q=-0.0 size=N/A time=00:22:25.13 bitrate=N/A speed=12.8x    frame=32420 fps=308 q=-0.0 size=N/A time=00:22:32.18 bitrate=N/A speed=12.9x    frame=32579 fps=308 q=-0.0 size=N/A time=00:22:38.81 bitrate=N/A speed=12.9x    frame=32710 fps=308 q=-0.0 size=N/A time=00:22:44.27 bitrate=N/A speed=12.8x    frame=32858 fps=308 q=-0.0 size=N/A time=00:22:50.45 bitrate=N/A speed=12.8x    frame=33018 fps=308 q=-0.0 size=N/A time=00:22:57.12 bitrate=N/A speed=12.8x    frame=33172 fps=308 q=-0.0 size=N/A time=00:23:03.54 bitrate=N/A speed=12.8x    frame=33333 fps=308 q=-0.0 size=N/A time=00:23:10.26 bitrate=N/A speed=12.8x    frame=33481 fps=308 q=-0.0 size=N/A time=00:23:16.43 bitrate=N/A speed=12.8x    frame=33624 fps=307 q=-0.0 size=N/A time=00:23:22.40 bitrate=N/A speed=12.8x    frame=33746 fps=307 q=-0.0 size=N/A time=00:23:27.48 bitrate=N/A speed=12.8x    frame=33862 fps=307 q=-0.0 size=N/A time=00:23:32.32 bitrate=N/A speed=12.8x    frame=34002 fps=307 q=-0.0 size=N/A time=00:23:38.16 bitrate=N/A speed=12.8x    frame=34146 fps=306 q=-0.0 size=N/A time=00:23:44.17 bitrate=N/A speed=12.8x    frame=34287 fps=306 q=-0.0 size=N/A time=00:23:50.05 bitrate=N/A speed=12.8x    frame=34401 fps=306 q=-0.0 size=N/A time=00:23:54.80 bitrate=N/A speed=12.8x    frame=34550 fps=306 q=-0.0 size=N/A time=00:24:01.02 bitrate=N/A speed=12.8x    [Parsed_psnr_16 @ 000001dffc0beec0] PSNR y:48.950339 u:50.331925 v:50.382059 average:49.370535 min:37.952505 max:inf
[out#0/null @ 000001dfef72dec0] video:14903KiB audio:271276KiB subtitle:0KiB other streams:0KiB global headers:0KiB muxing overhead: unknown
frame=34683 fps=306 q=-0.0 Lsize=N/A time=00:24:06.57 bitrate=N/A speed=12.8x    
